# xmcd
#
# Track frame offsets:
#	182
#	18365
#	31487
#	45815
#	60882
#	74620
#	88625
#	103517
#	124445
#	139940
#	156505
#
# Disc length: 2224 seconds
#
# Revision: 1
# Processed by: cddbd v1.5PL3 Copyright (c) Steve Scherf et al.
# Submitted via: audiograbber 1.83.01
#
DISCID=9108ae0b
DTITLE=Reno - Reno
DYEAR=2000
DGENRE=Pop
TTITLE0=I Think I Know
TTITLE1=In The Way
TTITLE2=If I Close My Eyes
TTITLE3=Love Me Right
TTITLE4=Growing Away (My Little Baby)
TTITLE5=Glow
TTITLE6=Whole World
TTITLE7=He's Coming Home
TTITLE8=Falling
TTITLE9=Truth
TTITLE10=Angel
EXTD=
EXTT0=
EXTT1=
EXTT2=
EXTT3=
EXTT4=
EXTT5=
EXTT6=
EXTT7=
EXTT8=
EXTT9=
EXTT10=
PLAYORDER=
